# xmcd CD database file
#
# Track frame offsets:
#	150
#	18337
#	39950
#	63635
#	83750
#	103825
#	125540
#	148650
#	164720
#	184602
#
# Disc length: 2645 seconds
#
# Revision: 0
# Processed by: cddbd v1.4PL0 Copyright (c) Steve Scherf et al.
# Submitted via: CdAid 2001.05.15.01
#
DISCID=870a530a
DTITLE=Various Artist - '80s Urban Beats and Grooves
DYEAR=1900
DGENRE=
TTITLE0=Crazay
TTITLE1=Stop Doggin' Me Around
TTITLE2=Angel
TTITLE3=Cold Blooded
TTITLE4=Love You Down
TTITLE5=My Prerogative
TTITLE6=The Rain
TTITLE7=Ain't Nothin' Goin' On But The Rent
TTITLE8=Candy
TTITLE9=The Last Time I Made Love
EXTD=
EXTT0=Jesse Johnson (featuring Sly Stone)
EXTT1=Klique
EXTT2=Angela Winbush
EXTT3=Rick James
EXTT4=Ready For The World
EXTT5=Bobby Brown
EXTT6=Oran "Juice" Jones
EXTT7=Gwen Guthrie
EXTT8=Cameo
EXTT9=Joyce Kennedy and Jeffrey Osborne
PLAYORDER=
